<svg width="22" height="24" viewBox="0 0 22 24" fill="none" xmlns="http://www.w3.org/2000/svg">
<g clip-path="url(#clip0_1_3412)">
<path d="M11.0001 0C10.1704 0 9.50005 0.670312 9.50005 1.5V2.4C6.07818 3.09375 3.50005 6.12187 3.50005 9.75V10.9406C3.50005 13.0687 2.77349 15.1359 1.44693 16.7953L0.748488 17.6719C0.476613 18.0094 0.42505 18.4734 0.61255 18.8625C0.80005 19.2516 1.1938 19.5 1.62505 19.5H20.375C20.8063 19.5 21.2001 19.2516 21.3876 18.8625C21.5751 18.4734 21.5235 18.0094 21.2516 17.6719L20.5532 16.8C19.2266 15.1359 18.5 13.0687 18.5 10.9406V9.75C18.5 6.12187 15.9219 3.09375 12.5001 2.4V1.5C12.5001 0.670312 11.8297 0 11.0001 0ZM11.0001 4.5C13.9016 4.5 16.25 6.84844 16.25 9.75V10.9406C16.25 13.1859 16.9016 15.375 18.111 17.25H3.88911C5.09849 15.375 5.75005 13.1859 5.75005 10.9406V9.75C5.75005 6.84844 8.09849 4.5 11.0001 4.5ZM14 21H11.0001H8.00005C8.00005 21.7969 8.31411 22.5609 8.87661 23.1234C9.43911 23.6859 10.2032 24 11.0001 24C11.7969 24 12.561 23.6859 13.1235 23.1234C13.686 22.5609 14 21.7969 14 21Z" fill="#2C3D50"/>
</g>
<defs>
<clipPath id="clip0_1_3412">
<rect width="21" height="24" fill="white" transform="translate(0.5)"/>
</clipPath>
</defs>
</svg>
