<svg width="22" height="24" viewBox="0 0 22 24" fill="none" xmlns="http://www.w3.org/2000/svg">
<g clip-path="url(#clip0_1_2913)">
<path d="M11 0C10.1703 0 9.50002 0.670312 9.50002 1.5V2.4C6.07814 3.09375 3.50002 6.12187 3.50002 9.75V10.6313C3.50002 12.8344 2.68908 14.9625 1.22658 16.6125L0.879706 17.0016C0.485956 17.4422 0.392206 18.075 0.631268 18.6141C0.870331 19.1531 1.40939 19.5 2.00002 19.5H20C20.5906 19.5 21.125 19.1531 21.3688 18.6141C21.6125 18.075 21.5141 17.4422 21.1203 17.0016L20.7735 16.6125C19.311 14.9625 18.5 12.8391 18.5 10.6313V9.75C18.5 6.12187 15.9219 3.09375 12.5 2.4V1.5C12.5 0.670312 11.8297 0 11 0ZM13.1235 23.1234C13.686 22.5609 14 21.7969 14 21H11H8.00002C8.00002 21.7969 8.31408 22.5609 8.87658 23.1234C9.43908 23.6859 10.2031 24 11 24C11.7969 24 12.561 23.6859 13.1235 23.1234Z" fill="#2D3D50"/>
</g>
<defs>
<clipPath id="clip0_1_2913">
<rect width="21" height="24" fill="white" transform="translate(0.5)"/>
</clipPath>
</defs>
</svg>
