<svg width="21" height="20" viewBox="0 0 21 20" fill="none" xmlns="http://www.w3.org/2000/svg">
<path d="M10.5 16.6667C12.2681 16.6667 13.9638 15.9644 15.2141 14.7141C16.4643 13.4639 17.1667 11.7682 17.1667 10.0001C17.1667 8.23197 16.4643 6.53628 15.2141 5.28604C13.9638 4.03579 12.2681 3.33341 10.5 3.33341C8.73191 3.33341 7.03622 4.03579 5.78598 5.28604C4.53573 6.53628 3.83335 8.23197 3.83335 10.0001C3.83335 11.7682 4.53573 13.4639 5.78598 14.7141C7.03622 15.9644 8.73191 16.6667 10.5 16.6667ZM10.5 1.66675C11.5944 1.66675 12.678 1.8823 13.689 2.30109C14.7001 2.71987 15.6188 3.3337 16.3926 4.10752C17.1664 4.88135 17.7802 5.80001 18.199 6.81105C18.6178 7.8221 18.8334 8.90573 18.8334 10.0001C18.8334 12.2102 17.9554 14.3298 16.3926 15.8926C14.8298 17.4554 12.7102 18.3334 10.5 18.3334C5.89169 18.3334 2.16669 14.5834 2.16669 10.0001C2.16669 7.78994 3.04466 5.67033 4.60746 4.10752C6.17027 2.54472 8.28988 1.66675 10.5 1.66675ZM10.9167 5.83341V10.2084L14.6667 12.4334L14.0417 13.4584L9.66669 10.8334V5.83341H10.9167Z" fill="#2DB281"/>
</svg>
