<svg width="24" height="24" viewBox="0 0 24 24" fill="none" xmlns="http://www.w3.org/2000/svg">
<path d="M23.1881 8.0812C23.2356 8.00911 23.2567 7.92285 23.248 7.83697C23.2393 7.7511 23.2012 7.67087 23.1401 7.60982L21.8029 6.2722C20.8744 5.34395 19.7353 4.65397 18.4826 4.26109C17.2299 3.8682 15.9008 3.78405 14.6085 4.01582L2.16225 6.25007C1.86404 6.30359 1.58865 6.44504 1.37146 6.65627C1.15426 6.86749 1.00518 7.13883 0.943382 7.43543C0.881579 7.73202 0.909873 8.04033 1.02463 8.32072C1.13938 8.60111 1.33536 8.84079 1.58737 9.00895L1.63912 9.04345C1.80846 9.15574 1.9985 9.23311 2.19811 9.27104C2.39773 9.30896 2.6029 9.30668 2.80162 9.26432L14.5207 6.73045C16.417 6.3205 18.3924 6.48634 20.1937 7.2067L22.7347 8.22333C22.8151 8.25564 22.9042 8.25913 22.9868 8.23323C23.0695 8.20732 23.1406 8.1536 23.1881 8.0812ZM20.475 6.51032C18.5342 5.73365 16.4056 5.555 14.3625 5.99732L2.6445 8.5312C2.54377 8.55288 2.43972 8.5541 2.33851 8.53477C2.23731 8.51545 2.14102 8.47597 2.05537 8.4187L2.004 8.3842C1.87634 8.29916 1.77704 8.17788 1.71887 8.03596C1.66069 7.89403 1.64631 7.73794 1.67756 7.58777C1.70881 7.4376 1.78427 7.30022 1.89424 7.19328C2.0042 7.08634 2.14364 7.01475 2.29462 6.9877L14.7412 4.7542C15.9144 4.54373 17.121 4.62008 18.2583 4.97673C19.3956 5.33337 20.4297 5.95975 21.2726 6.80245L21.3184 6.84858L20.475 6.51032Z" fill="#2DB281"/>
<path d="M18.75 23.2499H21C21.0995 23.2499 21.1948 23.2104 21.2652 23.1401C21.3355 23.0698 21.375 22.9744 21.375 22.8749V8.99993C21.375 8.93024 21.3556 8.86193 21.319 8.80264C21.2824 8.74336 21.23 8.69546 21.1676 8.66431L18.9176 7.53931C18.8604 7.51073 18.7969 7.49725 18.733 7.50014C18.6692 7.50303 18.6071 7.5222 18.5527 7.55583C18.4984 7.58946 18.4535 7.63643 18.4224 7.69228C18.3913 7.74813 18.375 7.811 18.375 7.87493V12.2362L17.2005 13.6068C16.5833 14.3279 15.8276 14.9178 14.9783 15.3416L14.9145 15.3734C13.9254 15.8659 12.8357 16.1226 11.7308 16.1234H10.5911C9.48581 16.1233 8.39571 15.8658 7.4071 15.3715C6.41849 14.8772 5.55852 14.1595 4.89525 13.2753L4.725 13.0499C4.47979 12.7247 4.16258 12.4606 3.79825 12.2784C3.43391 12.0963 3.03234 12.0009 2.625 11.9999V12.7499C2.91596 12.7507 3.20279 12.8187 3.46303 12.9489C3.72327 13.079 3.94985 13.2676 4.125 13.4999L4.29525 13.7249C4.34138 13.7868 4.39237 13.8438 4.44037 13.9038L4.32 14.1446C4.17473 14.4374 3.97278 14.6984 3.72584 14.9126C3.47891 15.1268 3.19191 15.2898 2.8815 15.3922L3.1185 16.1047C3.92252 15.8389 4.58928 15.2668 4.974 14.5124C5.28466 14.8322 5.62214 15.1248 5.98275 15.3869C5.74541 16.2626 5.2834 17.0611 4.6425 17.7033L4.61063 17.7348L5.13937 18.2666L5.172 18.2343C5.84975 17.5557 6.35365 16.7235 6.64087 15.8084C7.0302 16.0334 7.43807 16.2246 7.86 16.3799C7.82631 17.2206 7.61626 18.0448 7.2435 18.7991L7.16437 18.9573L7.83563 19.2926L7.91437 19.1343C8.30583 18.3477 8.54032 17.4924 8.60475 16.6162C9.20786 16.7737 9.82762 16.8587 10.4509 16.8693L10.128 19.4534L10.872 19.5464L11.2061 16.8749H11.7311C11.9595 16.8749 12.1879 16.8614 12.4151 16.8416L12.7526 19.5464L13.4966 19.4534L13.1591 16.7418C13.5736 16.6652 13.9814 16.5559 14.3786 16.4148C14.5642 17.3232 14.9242 18.1869 15.4387 18.9581L16.0627 18.5418C15.594 17.8402 15.268 17.0533 15.1031 16.2258L15.0825 16.1223C15.1384 16.0961 15.195 16.0717 15.2509 16.0443L15.3146 16.0124C15.6345 15.8489 15.9428 15.6639 16.2375 15.4586C16.495 16.3192 17.0447 17.0631 17.7919 17.5619L18.2081 16.9379C17.5613 16.5073 17.0987 15.8507 16.911 15.0967L16.8787 14.9688C17.1985 14.7014 17.4965 14.4091 17.7701 14.0947L18.375 13.3874V22.8749C18.375 22.9744 18.4145 23.0698 18.4848 23.1401C18.5552 23.2104 18.6505 23.2499 18.75 23.2499ZM19.125 22.4999V11.9999H20.625V22.4999H19.125ZM19.125 10.4999H20.625V11.2499H19.125V10.4999ZM20.625 9.23168V9.74993H19.125V8.48168L20.625 9.23168Z" fill="#2DB281"/>
</svg>
