<svg width="21" height="19" viewBox="0 0 21 19" fill="none" xmlns="http://www.w3.org/2000/svg">
<path fill-rule="evenodd" clip-rule="evenodd" d="M9.27198 0.687989C9.62307 0.41488 10.0552 0.266602 10.5 0.266602C10.9448 0.266602 11.3769 0.41488 11.728 0.687989L20.112 7.20799C20.865 7.79499 20.449 8.99999 19.497 8.99999H18.5V17C18.5 17.5304 18.2893 18.0391 17.9142 18.4142C17.5391 18.7893 17.0304 19 16.5 19H4.49998C3.96955 19 3.46084 18.7893 3.08577 18.4142C2.7107 18.0391 2.49998 17.5304 2.49998 17V8.99999H1.50298C0.549982 8.99999 0.135982 7.79399 0.887982 7.20899L9.27198 0.687989ZM4.12498 7.22499C4.35398 7.40999 4.49998 7.69299 4.49998 8.00999V17H16.5V8.00999C16.5 7.69299 16.646 7.40999 16.875 7.22499L10.5 2.26699L4.12498 7.22499Z" fill="#2C3D50"/>
</svg>
