<svg width="25" height="24" viewBox="0 0 25 24" fill="none" xmlns="http://www.w3.org/2000/svg">
<g clip-path="url(#clip0_1_2868)">
<path fill-rule="evenodd" clip-rule="evenodd" d="M11.272 2.68799C11.6231 2.41488 12.0552 2.2666 12.5 2.2666C12.9448 2.2666 13.3769 2.41488 13.728 2.68799L22.112 9.20799C22.865 9.79499 22.449 11 21.497 11H20.5V19C20.5 19.5304 20.2893 20.0391 19.9142 20.4142C19.5391 20.7893 19.0304 21 18.5 21H6.49998C5.96955 21 5.46084 20.7893 5.08577 20.4142C4.7107 20.0391 4.49998 19.5304 4.49998 19V11H3.50298C2.54998 11 2.13598 9.79399 2.88798 9.20899L11.272 2.68799Z" fill="#2D3D50"/>
</g>
<defs>
<clipPath id="clip0_1_2868">
<rect width="24" height="24" fill="white" transform="translate(0.5)"/>
</clipPath>
</defs>
</svg>
