<svg width="21" height="20" viewBox="0 0 21 20" fill="none" xmlns="http://www.w3.org/2000/svg">
<path d="M19.2751 8.93645L17.8246 7.23462C17.7144 7.10569 17.6479 6.94508 17.6348 6.77595L17.4568 4.54712C17.4271 4.15812 17.2592 3.79259 16.9833 3.51672C16.7074 3.24086 16.3419 3.07288 15.9529 3.04321L13.7241 2.8654C13.5548 2.85221 13.3941 2.78567 13.2651 2.67536L11.5635 1.22509C11.2674 0.970993 10.8902 0.831299 10.5 0.831299C10.1099 0.831299 9.73263 0.970993 9.43658 1.22509L7.73494 2.67517C7.60594 2.78556 7.44523 2.85214 7.27596 2.86532L5.04713 3.04298C4.65811 3.07265 4.29256 3.24062 4.01666 3.51648C3.74077 3.79234 3.57275 4.15787 3.54303 4.54689L3.36541 6.7756C3.35219 6.94484 3.28558 7.10551 3.17518 7.23446L1.72498 8.93645C1.47087 9.23255 1.33118 9.60983 1.33118 10C1.33118 10.3902 1.47087 10.7675 1.72498 11.0636L3.17541 12.7654C3.28566 12.8943 3.35213 13.0549 3.36521 13.2241L3.54322 15.4529C3.57289 15.8419 3.74087 16.2074 4.01673 16.4833C4.2926 16.7592 4.65812 16.9271 5.04713 16.9568L7.27596 17.1346C7.4452 17.1478 7.6059 17.2143 7.73494 17.3247L9.43658 18.775C9.73263 19.0291 10.1099 19.1688 10.5 19.1688C10.8902 19.1688 11.2674 19.0291 11.5635 18.775L13.2651 17.3249C13.3941 17.2145 13.5548 17.1479 13.7241 17.1347L15.9529 16.9569C16.3419 16.9272 16.7074 16.7592 16.9833 16.4834C17.2591 16.2075 17.4271 15.842 17.4568 15.453L17.6344 13.2243C17.6476 13.0551 17.7143 12.8944 17.8247 12.7654L19.2749 11.0637C19.529 10.7676 19.6688 10.3903 19.6688 10.0001C19.6689 9.6099 19.5292 9.23258 19.2751 8.93645Z" fill="url(#paint0_linear_1_3604)"/>
<path d="M8.41669 9.16675C8.16946 9.16675 7.92779 9.09344 7.72222 8.95609C7.51666 8.81873 7.35645 8.62351 7.26184 8.3951C7.16723 8.1667 7.14247 7.91536 7.19071 7.67289C7.23894 7.43041 7.35799 7.20768 7.5328 7.03286C7.70762 6.85805 7.93035 6.739 8.17282 6.69077C8.4153 6.64254 8.66663 6.66729 8.89504 6.7619C9.12345 6.85651 9.31867 7.01672 9.45602 7.22229C9.59338 7.42785 9.66669 7.66952 9.66669 7.91675C9.66633 8.24816 9.53451 8.56589 9.30017 8.80023C9.06583 9.03457 8.7481 9.16639 8.41669 9.16675ZM8.41669 7.50007C8.33427 7.50006 8.25371 7.52449 8.18518 7.57027C8.11665 7.61605 8.06324 7.68113 8.0317 7.75727C8.00015 7.8334 7.9919 7.91718 8.00797 7.99801C8.02404 8.07885 8.06373 8.15309 8.122 8.21137C8.18027 8.26965 8.25452 8.30934 8.33534 8.32542C8.41617 8.3415 8.49996 8.33325 8.5761 8.30171C8.65224 8.27018 8.71732 8.21677 8.7631 8.14825C8.80889 8.07972 8.83333 7.99916 8.83333 7.91675C8.8332 7.80628 8.78927 7.70038 8.71116 7.62226C8.63305 7.54415 8.52715 7.5002 8.41669 7.50007Z" fill="url(#paint1_linear_1_3604)"/>
<path d="M12.5833 13.3333C12.3361 13.3333 12.0944 13.2599 11.8889 13.1226C11.6833 12.9852 11.5231 12.79 11.4285 12.5616C11.3339 12.3332 11.3091 12.0819 11.3573 11.8394C11.4056 11.5969 11.5246 11.3742 11.6994 11.1994C11.8742 11.0246 12.097 10.9055 12.3395 10.8573C12.5819 10.809 12.8333 10.8338 13.0617 10.9284C13.2901 11.023 13.4853 11.1832 13.6227 11.3888C13.76 11.5944 13.8333 11.836 13.8333 12.0833C13.833 12.4147 13.7011 12.7324 13.4668 12.9667C13.2325 13.2011 12.9147 13.3329 12.5833 13.3333ZM12.5833 11.6666C12.5009 11.6666 12.4203 11.6911 12.3518 11.7368C12.2833 11.7826 12.2299 11.8477 12.1983 11.9238C12.1668 12 12.1586 12.0838 12.1746 12.1646C12.1907 12.2454 12.2304 12.3197 12.2887 12.3779C12.347 12.4362 12.4212 12.4759 12.502 12.492C12.5829 12.508 12.6667 12.4998 12.7428 12.4682C12.8189 12.4367 12.884 12.3833 12.9298 12.3148C12.9756 12.2462 13 12.1657 13 12.0833C12.9999 11.9728 12.9559 11.8669 12.8778 11.7888C12.7997 11.7107 12.6938 11.6667 12.5833 11.6666Z" fill="url(#paint2_linear_1_3604)"/>
<path d="M7.58329 13.3333C7.5009 13.3333 7.42037 13.3089 7.35187 13.2631C7.28337 13.2173 7.22999 13.1522 7.19846 13.0761C7.16693 13 7.15868 12.9162 7.17475 12.8354C7.19081 12.7546 7.23048 12.6804 7.28872 12.6221L13.122 6.78877C13.1607 6.75009 13.2067 6.7194 13.2572 6.69846C13.3078 6.67752 13.3619 6.66675 13.4166 6.66675C13.4713 6.66675 13.5255 6.67752 13.5761 6.69846C13.6266 6.7194 13.6725 6.75008 13.7112 6.78877C13.7499 6.82746 13.7806 6.87338 13.8015 6.92393C13.8225 6.97448 13.8332 7.02865 13.8332 7.08336C13.8332 7.13807 13.8225 7.19225 13.8015 7.24279C13.7806 7.29334 13.7499 7.33926 13.7112 7.37795L7.8779 13.2113C7.83927 13.25 7.79335 13.2808 7.74279 13.3017C7.69223 13.3227 7.63802 13.3334 7.58329 13.3333Z" fill="url(#paint3_linear_1_3604)"/>
<defs>
<linearGradient id="paint0_linear_1_3604" x1="3.54689" y1="3.04689" x2="16.7862" y2="16.2862" gradientUnits="userSpaceOnUse">
<stop stop-color="#BBEDDA"/>
<stop offset="1" stop-color="#2DB281"/>
</linearGradient>
<linearGradient id="paint1_linear_1_3604" x1="7.10016" y1="6.60023" x2="12.9599" y2="12.4599" gradientUnits="userSpaceOnUse">
<stop stop-color="white"/>
<stop offset="1" stop-color="#F2EDED"/>
</linearGradient>
<linearGradient id="paint2_linear_1_3604" x1="7.10015" y1="6.60009" x2="12.9598" y2="12.4598" gradientUnits="userSpaceOnUse">
<stop stop-color="white"/>
<stop offset="1" stop-color="#F2EDED"/>
</linearGradient>
<linearGradient id="paint3_linear_1_3604" x1="7.10013" y1="6.60018" x2="12.9598" y2="12.4599" gradientUnits="userSpaceOnUse">
<stop stop-color="white"/>
<stop offset="1" stop-color="#F2EDED"/>
</linearGradient>
</defs>
</svg>
