<svg width="22" height="24" viewBox="0 0 22 24" fill="none" xmlns="http://www.w3.org/2000/svg">
<g clip-path="url(#clip0_1_3393)">
<path d="M6.5 0C7.12344 0 7.625 0.501562 7.625 1.125V3H14.375V1.125C14.375 0.501562 14.8766 0 15.5 0C16.1234 0 16.625 0.501562 16.625 1.125V3H18.5C20.1547 3 21.5 4.34531 21.5 6V6.75V9V21C21.5 22.6547 20.1547 24 18.5 24H3.5C1.84531 24 0.5 22.6547 0.5 21V9V6.75V6C0.5 4.34531 1.84531 3 3.5 3H5.375V1.125C5.375 0.501562 5.87656 0 6.5 0ZM19.25 9H2.75V21C2.75 21.4125 3.0875 21.75 3.5 21.75H18.5C18.9125 21.75 19.25 21.4125 19.25 21V9ZM15.9219 13.9219L10.6719 19.1719C10.2312 19.6125 9.51875 19.6125 9.08281 19.1719L6.08281 16.1719C5.64219 15.7312 5.64219 15.0188 6.08281 14.5828C6.52344 14.1469 7.23594 14.1422 7.67188 14.5828L9.875 16.7859L14.3281 12.3328C14.7688 11.8922 15.4812 11.8922 15.9172 12.3328C16.3531 12.7734 16.3578 13.4859 15.9172 13.9219H15.9219Z" fill="white"/>
</g>
<defs>
<clipPath id="clip0_1_3393">
<rect width="21" height="24" fill="white" transform="translate(0.5)"/>
</clipPath>
</defs>
</svg>
