<svg width="40" height="40" viewBox="0 0 40 40" fill="none" xmlns="http://www.w3.org/2000/svg">
<rect x="0.5" y="0.5" width="39" height="39" rx="7.5" stroke="#2DB281"/>
<path d="M29.25 19.9994H16.895M12.534 19.9994H10.75M12.534 19.9994C12.534 19.4212 12.7637 18.8667 13.1725 18.4579C13.5813 18.0491 14.1358 17.8194 14.714 17.8194C15.2922 17.8194 15.8467 18.0491 16.2555 18.4579C16.6643 18.8667 16.894 19.4212 16.894 19.9994C16.894 20.5776 16.6643 21.1321 16.2555 21.5409C15.8467 21.9497 15.2922 22.1794 14.714 22.1794C14.1358 22.1794 13.5813 21.9497 13.1725 21.5409C12.7637 21.1321 12.534 20.5776 12.534 19.9994ZM29.25 26.6064H23.502M23.502 26.6064C23.502 27.1847 23.2718 27.7398 22.8628 28.1487C22.4539 28.5577 21.8993 28.7874 21.321 28.7874C20.7428 28.7874 20.1883 28.5567 19.7795 28.1479C19.3707 27.7391 19.141 27.1846 19.141 26.6064M23.502 26.6064C23.502 26.0281 23.2718 25.474 22.8628 25.0651C22.4539 24.6561 21.8993 24.4264 21.321 24.4264C20.7428 24.4264 20.1883 24.6561 19.7795 25.0649C19.3707 25.4737 19.141 26.0282 19.141 26.6064M19.141 26.6064H10.75M29.25 13.3924H26.145M21.784 13.3924H10.75M21.784 13.3924C21.784 12.8142 22.0137 12.2597 22.4225 11.8509C22.8313 11.4421 23.3858 11.2124 23.964 11.2124C24.2503 11.2124 24.5338 11.2688 24.7983 11.3783C25.0627 11.4879 25.3031 11.6485 25.5055 11.8509C25.7079 12.0533 25.8685 12.2937 25.9781 12.5582C26.0876 12.8226 26.144 13.1061 26.144 13.3924C26.144 13.6787 26.0876 13.9622 25.9781 14.2267C25.8685 14.4911 25.7079 14.7315 25.5055 14.9339C25.3031 15.1363 25.0627 15.2969 24.7983 15.4065C24.5338 15.516 24.2503 15.5724 23.964 15.5724C23.3858 15.5724 22.8313 15.3427 22.4225 14.9339C22.0137 14.5251 21.784 13.9706 21.784 13.3924Z" stroke="#2DB281" stroke-width="1.5" stroke-miterlimit="10" stroke-linecap="round"/>
</svg>
