<svg width="24" height="24" viewBox="0 0 24 24" fill="none" xmlns="http://www.w3.org/2000/svg">
<path fill-rule="evenodd" clip-rule="evenodd" d="M22.0312 22.0781H9.98438C8.85938 22.0781 8.01562 21.2344 8.01562 20.1094V19.6875C8.01562 19.5 8.15625 19.3594 8.34375 19.3594H23.6719C23.8594 19.3594 24 19.5 24 19.6875V20.1094C24 21.2344 23.1562 22.0781 22.0312 22.0781ZM8.67188 20.0156V20.1094C8.67188 20.8594 9.23438 21.4219 9.98438 21.4219H22.0312C22.7812 21.4219 23.3438 20.8594 23.3438 20.1094V20.0156H8.67188Z" fill="#2DB281"/>
<path fill-rule="evenodd" clip-rule="evenodd" d="M15.9844 20.0156C11.5781 20.0156 8.01562 16.4531 8.01562 12.0469C8.01562 7.64062 11.5781 4.03125 15.9844 4.03125C20.3906 4.03125 24 7.64062 24 12.0469C24 14.2031 23.1562 16.1719 21.6562 17.6719C20.1562 19.1719 18.1406 20.0156 15.9844 20.0156ZM15.9844 4.6875C11.9531 4.6875 8.67188 7.96875 8.67188 12.0469C8.67188 16.0781 11.9531 19.3594 15.9844 19.3594C20.0625 19.3594 23.3438 16.0781 23.3438 12.0469C23.3438 7.96875 20.0625 4.6875 15.9844 4.6875Z" fill="#2DB281"/>
<path fill-rule="evenodd" clip-rule="evenodd" d="M15.9844 18.5156C14.25 18.5156 12.6562 17.8594 11.4375 16.5938C10.1719 15.375 9.51562 13.7812 9.51562 12.0469C9.51562 10.3125 10.1719 8.71875 11.4375 7.5C12.6562 6.23438 14.25 5.57812 15.9844 5.57812C17.7188 5.57812 19.3594 6.23438 20.5781 7.5C21.7969 8.71875 22.4531 10.3125 22.4531 12.0469C22.4531 13.7812 21.7969 15.375 20.5781 16.5938C19.3594 17.8594 17.7188 18.5156 15.9844 18.5156ZM15.9844 6.23438C12.7969 6.23438 10.1719 8.85938 10.1719 12.0469C10.1719 15.2344 12.7969 17.8594 15.9844 17.8594C19.1719 17.8594 21.7969 15.2344 21.7969 12.0469C21.7969 8.85938 19.1719 6.23438 15.9844 6.23438Z" fill="#2DB281"/>
<path fill-rule="evenodd" clip-rule="evenodd" d="M12.6562 12.5156C12.5625 12.5156 12.4688 12.4688 12.4219 12.4219C12.2812 12.2812 12.2812 12.0938 12.4219 11.9531L15.8906 8.4375C16.0312 8.29688 16.2188 8.29688 16.3594 8.4375C16.5 8.57812 16.5 8.76562 16.3594 8.90625L12.8906 12.4219C12.8438 12.4688 12.75 12.5156 12.6562 12.5156Z" fill="#2DB281"/>
<path fill-rule="evenodd" clip-rule="evenodd" d="M13.5 14.9062C13.4062 14.9062 13.3125 14.8594 13.2656 14.8125C13.125 14.6719 13.125 14.4844 13.2656 14.3438L18.2812 9.28125C18.4219 9.14062 18.6094 9.14062 18.75 9.28125C18.8906 9.42188 18.8906 9.60938 18.75 9.75L13.7344 14.8125C13.6875 14.8594 13.5938 14.9062 13.5 14.9062Z" fill="#2DB281"/>
<path fill-rule="evenodd" clip-rule="evenodd" d="M15.8438 15.7031C15.75 15.7031 15.6562 15.6562 15.6094 15.6094C15.4688 15.4688 15.4688 15.2812 15.6094 15.1406L19.125 11.6719C19.2656 11.5312 19.4531 11.5312 19.5938 11.6719C19.7344 11.8125 19.7344 12 19.5938 12.1406L16.0781 15.6094C16.0312 15.6562 15.9375 15.7031 15.8438 15.7031Z" fill="#2DB281"/>
<path fill-rule="evenodd" clip-rule="evenodd" d="M5.8125 21.3281H0.328125C0.140625 21.3281 0 21.1875 0 21V14.2969C0 14.1094 0.140625 13.9688 0.328125 13.9688H5.8125C6 13.9688 6.14062 14.1094 6.14062 14.2969V21C6.14062 21.1875 6 21.3281 5.8125 21.3281ZM0.65625 20.6719H5.48438V14.625H0.65625V20.6719Z" fill="#2DB281"/>
<path fill-rule="evenodd" clip-rule="evenodd" d="M5.8125 14.625C5.625 14.625 5.48438 14.4844 5.48438 14.2969V12.8906H0.65625V14.2969C0.65625 14.4844 0.515625 14.625 0.328125 14.625C0.140625 14.625 0 14.4844 0 14.2969V12.5625C0 12.375 0.140625 12.2344 0.328125 12.2344H5.8125C6 12.2344 6.14062 12.375 6.14062 12.5625V14.2969C6.14062 14.4844 6 14.625 5.8125 14.625Z" fill="#2DB281"/>
<path fill-rule="evenodd" clip-rule="evenodd" d="M5.20312 12.8906C5.01562 12.8906 4.875 12.75 4.875 12.5625V9.23438H1.26562V12.5625C1.26562 12.75 1.125 12.8906 0.9375 12.8906C0.75 12.8906 0.609375 12.75 0.609375 12.5625V8.90625C0.609375 8.71875 0.75 8.57812 0.9375 8.57812H5.20312C5.39062 8.57812 5.53125 8.71875 5.53125 8.90625V12.5625C5.53125 12.75 5.39062 12.8906 5.20312 12.8906Z" fill="#2DB281"/>
<path fill-rule="evenodd" clip-rule="evenodd" d="M4.5 9.23438C4.3125 9.23438 4.17188 9.09375 4.17188 8.90625V2.25C4.17188 2.0625 4.3125 1.92188 4.5 1.92188C4.6875 1.92188 4.82812 2.0625 4.82812 2.25V8.90625C4.82812 9.09375 4.6875 9.23438 4.5 9.23438ZM1.6875 9.23438C1.5 9.23438 1.35938 9.09375 1.35938 8.90625V4.6875C1.35938 4.5 1.5 4.35938 1.6875 4.35938C1.875 4.35938 2.01562 4.5 2.01562 4.6875V8.90625C2.01562 9.09375 1.875 9.23438 1.6875 9.23438Z" fill="#2DB281"/>
<path fill-rule="evenodd" clip-rule="evenodd" d="M1.96875 12.8906C1.78125 12.8906 1.64062 12.75 1.64062 12.5625V10.4062C1.64062 10.2188 1.78125 10.0781 1.96875 10.0781C2.15625 10.0781 2.29688 10.2188 2.29688 10.4062V12.5625C2.29688 12.75 2.15625 12.8906 1.96875 12.8906Z" fill="#2DB281"/>
<path fill-rule="evenodd" clip-rule="evenodd" d="M1.68749 5.01552C1.54687 5.01552 1.40624 4.92177 1.35937 4.73427C1.31249 4.54677 1.45312 4.40615 1.64062 4.35927C3.32812 4.07802 4.17187 2.15615 4.21874 2.10927C4.26562 1.96865 4.45312 1.8749 4.64062 1.96865C4.78124 2.01552 4.87499 2.20302 4.78124 2.39052C4.73437 2.48427 3.74999 4.64052 1.73437 5.01552H1.68749Z" fill="#2DB281"/>
<path fill-rule="evenodd" clip-rule="evenodd" d="M1.5 21.3281C1.3125 21.3281 1.17188 21.1875 1.17188 21V15.7969C1.17188 15.6094 1.3125 15.4688 1.5 15.4688C1.6875 15.4688 1.82812 15.6094 1.82812 15.7969V21C1.82812 21.1875 1.6875 21.3281 1.5 21.3281Z" fill="#2DB281"/>
</svg>
