<svg width="24" height="24" viewBox="0 0 24 24" fill="none" xmlns="http://www.w3.org/2000/svg">
<g clip-path="url(#clip0_425_66)">
<path d="M19.125 21.75C20.5725 21.75 21.75 20.5725 21.75 19.125C21.75 17.6775 20.5725 16.5 19.125 16.5C17.6775 16.5 16.5 17.6775 16.5 19.125C16.5 20.5725 17.6775 21.75 19.125 21.75ZM19.125 17.25C20.1585 17.25 21 18.0907 21 19.125C21 20.1593 20.1585 21 19.125 21C18.0915 21 17.25 20.1593 17.25 19.125C17.25 18.0907 18.0915 17.25 19.125 17.25Z" fill="#2DB281"/>
<path d="M14.049 17.9622C14.049 19.0505 14.3168 20.4155 14.676 21.188C15.411 23.0532 16.857 23.9997 18.975 23.9997C21.7455 23.9997 24 21.7452 24 18.9747C24 16.28 21.8865 14.3247 18.975 14.3247C15.6652 14.3247 14.5852 12.5465 14.5425 12.473C14.5276 12.4474 14.51 12.4235 14.49 12.4017L2.97375 0.118219C2.92233 0.0632958 2.85558 0.0251099 2.78217 0.00862445C2.70876 -0.00786099 2.63209 -0.00188359 2.56212 0.0257798C2.49215 0.0534431 2.43212 0.101513 2.38984 0.163742C2.34755 0.225971 2.32496 0.299482 2.325 0.374719C2.325 7.61297 7.152 11.411 10.6762 14.183C12.561 15.6657 14.049 16.8357 14.049 17.9622ZM3.108 1.35797L13.917 12.887C14.118 13.205 15.45 15.0747 18.975 15.0747C21.4522 15.0747 23.25 16.715 23.25 18.9747C23.25 21.3327 21.3322 23.2497 18.975 23.2497C17.1712 23.2497 15.993 22.4847 15.3652 20.8917C15.0907 20.3022 14.799 19.0745 14.799 17.9622C14.799 16.472 13.1842 15.2015 11.1405 13.5935C7.90275 11.0465 3.5265 7.60472 3.108 1.35797ZM2.25 19.1247C2.25 20.5722 3.4275 21.7497 4.875 21.7497C6.3225 21.7497 7.5 20.5722 7.5 19.1247C7.5 17.6772 6.3225 16.4997 4.875 16.4997C3.4275 16.4997 2.25 17.6772 2.25 19.1247ZM6.75 19.1247C6.75 20.159 5.9085 20.9997 4.875 20.9997C3.8415 20.9997 3 20.159 3 19.1247C3 18.0905 3.8415 17.2497 4.875 17.2497C5.9085 17.2497 6.75 18.0905 6.75 19.1247Z" fill="#2DB281"/>
<path d="M15.4755 11.603C15.4373 11.6356 15.406 11.6757 15.3836 11.7207C15.3611 11.7657 15.348 11.8147 15.3449 11.8649C15.3418 11.9151 15.3488 11.9654 15.3655 12.0128C15.3822 12.0602 15.4083 12.1038 15.4423 12.1409C15.4762 12.178 15.5172 12.208 15.5629 12.2289C15.6086 12.2499 15.6581 12.2614 15.7083 12.2629C15.7586 12.2643 15.8086 12.2557 15.8555 12.2374C15.9023 12.2191 15.945 12.1916 15.981 12.1565C18.6322 9.74147 21.675 6.22022 21.675 0.374719C21.675 0.299482 21.6525 0.225971 21.6102 0.163742C21.5679 0.101513 21.5078 0.0534431 21.4379 0.0257798C21.3679 -0.00188359 21.2912 -0.00786099 21.2178 0.00862445C21.1444 0.0251099 21.0777 0.0632958 21.0262 0.118219L12.8363 8.85272C12.7682 8.92532 12.7318 9.02198 12.7351 9.12142C12.7383 9.22086 12.7809 9.31494 12.8535 9.38297C12.9261 9.451 13.0228 9.4874 13.1222 9.48416C13.2216 9.48093 13.3157 9.43832 13.3837 9.36572L20.8942 1.35572C20.5747 6.32822 17.8598 9.43022 15.4755 11.603ZM8.18325 14.1717C8.2291 14.1539 8.271 14.1273 8.30655 14.0933C8.3421 14.0594 8.37062 14.0187 8.39047 13.9737C8.41032 13.9287 8.42111 13.8803 8.42223 13.8311C8.42335 13.782 8.41478 13.7331 8.397 13.6872C8.37922 13.6414 8.35259 13.5995 8.31862 13.5639C8.28465 13.5284 8.24401 13.4998 8.19902 13.48C8.15403 13.4602 8.10557 13.4494 8.05641 13.4482C8.00725 13.4471 7.95835 13.4557 7.9125 13.4735C7.73983 13.5425 7.56878 13.6155 7.3995 13.6925C6.7665 13.9737 5.97825 14.3247 5.025 14.3247C2.1135 14.3247 0 16.28 0 18.9747C0 21.7452 2.2545 23.9997 5.025 23.9997C7.143 23.9997 8.589 23.0532 9.31425 21.2082C9.69375 20.3945 9.75 18.6132 9.75 17.6247C9.75 17.423 10.3215 16.9925 10.6635 16.7352C10.9792 16.4982 11.3055 16.2522 11.5305 15.9987C11.5965 15.9243 11.6303 15.8267 11.6244 15.7274C11.6185 15.6281 11.5734 15.5353 11.499 15.4692C11.4246 15.4032 11.327 15.3694 11.2277 15.3753C11.1284 15.3812 11.0355 15.4263 10.9695 15.5007C10.794 15.6995 10.4985 15.9215 10.212 16.1367C9.58875 16.6062 9 17.0487 9 17.6247C9 19.1787 8.8635 20.4005 8.62575 20.9127C8.007 22.4847 6.82875 23.2497 5.025 23.2497C3.89156 23.2485 2.80489 22.7977 2.00343 21.9963C1.20197 21.1948 0.751191 20.1082 0.75 18.9747C0.75 16.7142 2.54775 15.0747 5.025 15.0747C6.138 15.0747 7.04325 14.6712 7.70475 14.3765C7.87575 14.3 8.0355 14.2295 8.18325 14.1717Z" fill="#2DB281"/>
<path d="M12 13.3423C12.3339 13.3423 12.6045 13.0717 12.6045 12.7378C12.6045 12.4039 12.3339 12.1333 12 12.1333C11.6662 12.1333 11.3955 12.4039 11.3955 12.7378C11.3955 13.0717 11.6662 13.3423 12 13.3423Z" fill="#2DB281"/>
</g>
<defs>
<clipPath id="clip0_425_66">
<rect width="24" height="24" fill="white"/>
</clipPath>
</defs>
</svg>
