<svg width="24" height="24" viewBox="0 0 24 24" fill="none" xmlns="http://www.w3.org/2000/svg">
<path d="M3 13.5V15C3 15.225 3.15 15.375 3.375 15.375H4.875C4.9875 15.375 5.0625 15.3375 5.1375 15.2625L13.5 6.9L14.3625 7.7625C14.4375 7.8375 14.55 7.875 14.625 7.875C14.7 7.875 14.8125 7.8375 14.8875 7.7625L16.0125 6.6375C16.1625 6.4875 16.1625 6.2625 16.0125 6.1125L15.15 5.25L17.2125 3.1875C17.475 2.925 17.625 2.5875 17.625 2.175C17.625 1.3875 16.9875 0.75 16.2 0.75C15.825 0.75 15.45 0.9 15.1875 1.1625L13.125 3.225L12.2625 2.3625C12.1125 2.2125 11.8875 2.2125 11.7375 2.3625L10.6125 3.4875C10.4625 3.6375 10.4625 3.8625 10.6125 4.0125L11.475 4.875L3.1125 13.2375C3.0375 13.3125 3 13.3875 3 13.5ZM12 3.15L12.8625 4.0125C12.9375 4.0875 13.0125 4.125 13.125 4.125C13.2375 4.125 13.3125 4.0875 13.3875 4.0125L15.7125 1.6875C15.825 1.575 16.0125 1.5 16.2 1.5C16.575 1.5 16.875 1.8 16.875 2.175C16.875 2.3625 16.8 2.5125 16.6875 2.6625L14.3625 4.9875C14.2125 5.1375 14.2125 5.3625 14.3625 5.5125L15.225 6.375L14.625 6.975L11.4 3.75L12 3.15ZM3.75 13.65L12 5.4L12.975 6.375L4.725 14.625H3.75V13.65Z" fill="#2DB281"/>
<path d="M18 9H14.25C14.025 9 13.875 9.15 13.875 9.375V11.25H12.375C11.7375 11.25 11.25 11.7375 11.25 12.375V22.125C11.25 22.7625 11.7375 23.25 12.375 23.25H19.875C20.5125 23.25 21 22.7625 21 22.125V12.375C21 11.7375 20.5125 11.25 19.875 11.25H18.375V9.375C18.375 9.15 18.225 9 18 9ZM19.875 12C20.1 12 20.25 12.15 20.25 12.375V22.125C20.25 22.35 20.1 22.5 19.875 22.5H12.375C12.15 22.5 12 22.35 12 22.125V12.375C12 12.15 12.15 12 12.375 12H14.25C14.475 12 14.625 11.85 14.625 11.625V11.25H16.5V10.5H14.625V9.75H17.625V10.5H16.875V11.25H17.625V11.625C17.625 11.85 17.775 12 18 12H19.875Z" fill="#2DB281"/>
<path d="M12.75 13.5V21.375C12.75 21.6 12.9 21.75 13.125 21.75H17.625V21H13.5V13.875H18.75V21H18.375V21.75H19.125C19.35 21.75 19.5 21.6 19.5 21.375V13.5C19.5 13.275 19.35 13.125 19.125 13.125H13.125C12.9 13.125 12.75 13.275 12.75 13.5Z" fill="#2DB281"/>
<path d="M2.4 21.8625C2.7 22.0875 3.0375 22.2 3.375 22.2C3.7125 22.2 4.05 22.0875 4.35 21.8625C4.9125 21.4125 5.1375 20.6625 4.9125 19.9875L3.7125 16.725C3.675 16.6125 3.525 16.5 3.375 16.5C3.225 16.5 3.075 16.6125 3.0375 16.7625L1.8375 20.025C1.575 20.6625 1.8 21.4125 2.4 21.8625ZM2.55 20.25L3.375 17.9625L4.2 20.25C4.35 20.625 4.2 21.0375 3.9 21.2625C3.6 21.4875 3.15 21.4875 2.85 21.2625C2.55 21.0375 2.4 20.625 2.55 20.25Z" fill="#2DB281"/>
</svg>
